<?xml version="1.0" encoding="UTF-8" standalone="no"?>
<!-- Created with Inkscape (http://www.inkscape.org/) -->

<svg
   xmlns:dc="http://purl.org/dc/elements/1.1/"
   xmlns:cc="http://creativecommons.org/ns#"
   xmlns:rdf="http://www.w3.org/1999/02/22-rdf-syntax-ns#"
   xmlns:svg="http://www.w3.org/2000/svg"
   xmlns="http://www.w3.org/2000/svg"
   version="1.1"
   width="48"
   height="48"
   id="svg2">
  <defs
     id="defs4" />
  <metadata
     id="metadata7">
    <rdf:RDF>
      <cc:Work
         rdf:about="">
        <dc:format>image/svg+xml</dc:format>
        <dc:type
           rdf:resource="http://purl.org/dc/dcmitype/StillImage" />
        <dc:title></dc:title>
      </cc:Work>
    </rdf:RDF>
  </metadata>
  <path
     d="M 23.999998,48 7.029402,40.9706 2e-6,24 23.999998,24 z"
     id="path4075"
     style="fill:#d4d7da;fill-opacity:1;fill-rule:nonzero;stroke:none" />
  <path
     d="m 23.999998,0 16.9706,7.0294 7.0294,16.9706 -24,0 z"
     id="path4077"
     style="fill:#d4d7da;fill-opacity:1;fill-rule:nonzero;stroke:none" />
  <path
     d="M 2e-6,24 7.029402,7.0294 23.999998,0 l 0,24 z"
     id="path4079"
     style="fill:#f2f2f2;fill-opacity:1;fill-rule:nonzero;stroke:none" />
  <path
     d="M 47.999998,24 40.970568,40.9706 23.999998,48 l 0,-24 z"
     id="path4081"
     style="fill:#bdc3c7;fill-opacity:1;fill-rule:nonzero;stroke:none" />
  <g
     transform="translate(70.003571,-1004.3622)"
     id="g3937"
     style="fill:#eff0f2;fill-opacity:1" />
  <g
     transform="translate(-206.99643,-1209.3622)"
     id="g3939"
     style="fill:#eff0f2;fill-opacity:1" />
  <path
     d="M 42,24 36.727922,36.7279 24,42 11.272077,36.7279 6.0000001,24 11.272077,11.2721 24,6 36.727922,11.2721 z"
     id="path3949"
     style="fill:#34495e;fill-opacity:1;fill-rule:nonzero;stroke:none" />
  <rect
     width="2"
     height="4"
     ry="0"
     x="11"
     y="23.999983"
     id="rect3951"
     style="fill:#c0392b;fill-opacity:1;fill-rule:nonzero;stroke:none" />
  <rect
     width="2"
     height="8"
     ry="0"
     x="14"
     y="19.999983"
     id="rect3953"
     style="fill:#c0392b;fill-opacity:1;fill-rule:nonzero;stroke:none" />
  <rect
     width="2"
     height="10"
     ry="0"
     x="17"
     y="17.999983"
     id="rect3955"
     style="fill:#f1c40f;fill-opacity:1;fill-rule:nonzero;stroke:none" />
  <rect
     width="2"
     height="16"
     ry="0"
     x="20"
     y="11.999983"
     id="rect3957"
     style="fill:#f1c40f;fill-opacity:1;fill-rule:nonzero;stroke:none" />
  <rect
     width="2"
     height="8"
     ry="0"
     x="23"
     y="19.999983"
     id="rect3959"
     style="fill:#f1c40f;fill-opacity:1;fill-rule:nonzero;stroke:none" />
  <rect
     width="2"
     height="9"
     ry="0"
     x="26"
     y="18.999983"
     id="rect3961"
     style="fill:#27ae60;fill-opacity:1;fill-rule:nonzero;stroke:none" />
  <rect
     width="2"
     height="4"
     ry="0"
     x="29"
     y="23.999983"
     id="rect3963"
     style="fill:#27ae60;fill-opacity:1;fill-rule:nonzero;stroke:none" />
  <rect
     width="2"
     height="2"
     ry="0"
     x="32"
     y="25.999983"
     id="rect3965"
     style="fill:#27ae60;fill-opacity:1;fill-rule:nonzero;stroke:none" />
  <rect
     width="2"
     height="3"
     ry="0"
     x="35"
     y="24.999983"
     id="rect3967"
     style="fill:#27ae60;fill-opacity:1;fill-rule:nonzero;stroke:none" />
  <rect
     width="2"
     height="2"
     ry="0"
     x="11"
     y="-29.999983"
     transform="scale(1,-1)"
     id="rect3969"
     style="opacity:0.5;fill:#c0392b;fill-opacity:1;fill-rule:nonzero;stroke:none" />
  <rect
     width="2"
     height="4"
     ry="0"
     x="14"
     y="-31.999983"
     transform="scale(1,-1)"
     id="rect3971"
     style="opacity:0.5;fill:#c0392b;fill-opacity:1;fill-rule:nonzero;stroke:none" />
  <rect
     width="2"
     height="5"
     ry="0"
     x="17"
     y="-32.999981"
     transform="scale(1,-1)"
     id="rect3973"
     style="opacity:0.5;fill:#f1c40f;fill-opacity:1;fill-rule:nonzero;stroke:none" />
  <rect
     width="2"
     height="8"
     ry="0"
     x="20"
     y="-35.999981"
     transform="scale(1,-1)"
     id="rect3975"
     style="opacity:0.5;fill:#f1c40f;fill-opacity:1;fill-rule:nonzero;stroke:none" />
  <rect
     width="2"
     height="4"
     ry="0"
     x="23"
     y="-31.999983"
     transform="scale(1,-1)"
     id="rect3977"
     style="opacity:0.5;fill:#f1c40f;fill-opacity:1;fill-rule:nonzero;stroke:none" />
  <rect
     width="2"
     height="4.5"
     ry="0"
     x="26"
     y="-32.499981"
     transform="scale(1,-1)"
     id="rect3979"
     style="opacity:0.5;fill:#27ae60;fill-opacity:1;fill-rule:nonzero;stroke:none" />
  <rect
     width="2"
     height="2"
     ry="0"
     x="29"
     y="-29.999983"
     transform="scale(1,-1)"
     id="rect3981"
     style="opacity:0.5;fill:#27ae60;fill-opacity:1;fill-rule:nonzero;stroke:none" />
  <rect
     width="2"
     height="1"
     ry="0"
     x="32"
     y="-28.999983"
     transform="scale(1,-1)"
     id="rect3983"
     style="opacity:0.5;fill:#27ae60;fill-opacity:1;fill-rule:nonzero;stroke:none" />
  <rect
     width="2"
     height="1.5"
     ry="0"
     x="35"
     y="-29.499983"
     transform="scale(1,-1)"
     id="rect3985"
     style="opacity:0.5;fill:#27ae60;fill-opacity:1;fill-rule:nonzero;stroke:none" />
  <g
     transform="translate(-2,-1003.3619)"
     id="g3987"
     style="stroke:none">
    <rect
       width="12"
       height="6"
       rx="1.2631578"
       x="28"
       y="1014.3622"
       id="rect3989"
       style="fill:#ecf0f1;fill-opacity:1;fill-rule:nonzero;stroke:none" />
    <path
       d="m 28.095971,1018.7631 -2.03282,3.8333 3.503141,-2.3661 z"
       id="path3991"
       style="fill:#ecf0f1;fill-opacity:1;stroke:none" />
  </g>
</svg>
