<?xml version="1.0" encoding="UTF-8" standalone="no"?>
<!-- Created with Inkscape (http://www.inkscape.org/) -->

<svg
   xmlns:dc="http://purl.org/dc/elements/1.1/"
   xmlns:cc="http://creativecommons.org/ns#"
   xmlns:rdf="http://www.w3.org/1999/02/22-rdf-syntax-ns#"
   xmlns:svg="http://www.w3.org/2000/svg"
   xmlns="http://www.w3.org/2000/svg"
   xmlns:sodipodi="http://sodipodi.sourceforge.net/DTD/sodipodi-0.dtd"
   xmlns:inkscape="http://www.inkscape.org/namespaces/inkscape"
   width="48"
   height="48"
   id="svg2"
   version="1.1"
   inkscape:version="0.48.4 r9939"
   sodipodi:docname="logo.svg">
  <defs
     id="defs4" />
  <sodipodi:namedview
     id="base"
     pagecolor="#ffffff"
     bordercolor="#666666"
     borderopacity="1.0"
     inkscape:pageopacity="0.0"
     inkscape:pageshadow="2"
     inkscape:zoom="8"
     inkscape:cx="29.860649"
     inkscape:cy="55.242119"
     inkscape:document-units="px"
     inkscape:current-layer="layer1"
     showgrid="false"
     inkscape:window-width="1600"
     inkscape:window-height="846"
     inkscape:window-x="0"
     inkscape:window-y="27"
     inkscape:window-maximized="1" />
  <metadata
     id="metadata7">
    <rdf:RDF>
      <cc:Work
         rdf:about="">
        <dc:format>image/svg+xml</dc:format>
        <dc:type
           rdf:resource="http://purl.org/dc/dcmitype/StillImage" />
        <dc:title></dc:title>
      </cc:Work>
    </rdf:RDF>
  </metadata>
  <g
     inkscape:label="Layer 1"
     inkscape:groupmode="layer"
     id="layer1"
     transform="translate(0,-1004.3622)">
    <path
       sodipodi:nodetypes="ccccc"
       inkscape:connector-curvature="0"
       style="fill:#d4d7da;fill-opacity:1;fill-rule:nonzero;stroke:none"
       d="M 24,1052.3622 7.0294,1045.3328 0,1028.3622 l 24,0 z"
       id="path7799" />
    <path
       id="path7801"
       d="m 24,1004.3622 16.9706,7.0294 7.0294,16.9706 -24,0 z"
       style="fill:#d4d7da;fill-opacity:1;fill-rule:nonzero;stroke:none"
       inkscape:connector-curvature="0"
       sodipodi:nodetypes="ccccc" />
    <path
       sodipodi:nodetypes="ccccc"
       inkscape:connector-curvature="0"
       style="fill:#f2f2f2;fill-opacity:1;fill-rule:nonzero;stroke:none"
       d="m 0,1028.3622 7.0294,-16.9706 16.9706,-7.0294 0,24 z"
       id="path7803" />
    <g
       id="g6521"
       style="fill:#eff0f2;fill-opacity:1"
       transform="translate(0,1.7382813e-5)" />
    <g
       transform="translate(-277,-204.99998)"
       style="fill:#eff0f2;fill-opacity:1"
       id="g6630" />
    <path
       id="path7793"
       d="M 48,1028.3622 40.970563,1045.3328 24,1052.3622 l 0,-24 z"
       style="fill:#bdc3c7;fill-opacity:1;fill-rule:nonzero;stroke:none"
       inkscape:connector-curvature="0"
       sodipodi:nodetypes="ccccc" />
    <path
       sodipodi:type="star"
       style="fill:#34495e;fill-opacity:1;fill-rule:nonzero;stroke:none"
       id="path7739"
       sodipodi:sides="8"
       sodipodi:cx="-47.199379"
       sodipodi:cy="-4.1491251"
       sodipodi:r1="29.555561"
       sodipodi:r2="27.305779"
       sodipodi:arg1="0"
       sodipodi:arg2="0.39269908"
       inkscape:flatsided="true"
       inkscape:rounded="0"
       inkscape:randomized="0"
       d="m -17.643818,-4.1491251 -8.656623,20.8989381 -20.898938,8.656623 -20.898938,-8.656623 -8.656623,-20.8989381 8.656623,-20.8989379 20.898938,-8.656623 20.898938,8.656623 z"
       transform="matrix(0.60902244,0,0,0.60902244,52.745478,1030.8891)" />
    <g
       transform="translate(3,-3.99997)"
       id="g7741">
      <rect
         ry="0"
         y="1032.3622"
         x="8"
         height="4"
         width="2"
         id="rect7743"
         style="fill:#fc8d59;fill-opacity:1;fill-rule:nonzero;stroke:none" />
      <rect
         style="fill:#fc8d59;fill-opacity:1;fill-rule:nonzero;stroke:none"
         id="rect7745"
         width="2"
         height="8"
         x="11"
         y="1028.3622"
         ry="0" />
      <rect
         ry="0"
         y="1026.3622"
         x="14"
         height="10"
         width="2"
         id="rect7747"
         style="fill:#ffffbf;fill-opacity:1;fill-rule:nonzero;stroke:none" />
      <rect
         ry="0"
         y="1020.3622"
         x="17"
         height="16"
         width="2"
         id="rect7749"
         style="fill:#ffffbf;fill-opacity:1;fill-rule:nonzero;stroke:none" />
      <rect
         style="fill:#ffffbf;fill-opacity:1;fill-rule:nonzero;stroke:none"
         id="rect7751"
         width="2"
         height="8"
         x="20"
         y="1028.3622"
         ry="0" />
      <rect
         ry="0"
         y="1027.3622"
         x="23"
         height="9"
         width="2"
         id="rect7753"
         style="fill:#91cf60;fill-opacity:1;fill-rule:nonzero;stroke:none" />
      <rect
         style="fill:#91cf60;fill-opacity:1;fill-rule:nonzero;stroke:none"
         id="rect7755"
         width="2"
         height="4"
         x="26"
         y="1032.3622"
         ry="0" />
      <rect
         ry="0"
         y="1034.3622"
         x="29"
         height="2"
         width="2"
         id="rect7757"
         style="fill:#91cf60;fill-opacity:1;fill-rule:nonzero;stroke:none" />
      <rect
         style="fill:#91cf60;fill-opacity:1;fill-rule:nonzero;stroke:none"
         id="rect7759"
         width="2"
         height="3"
         x="32"
         y="1033.3622"
         ry="0" />
    </g>
    <g
       style="opacity:0.5"
       id="g7761"
       transform="matrix(1,0,0,-0.5,3,1550.5433)">
      <rect
         style="fill:#fc8d59;fill-opacity:1;fill-rule:nonzero;stroke:none"
         id="rect7763"
         width="2"
         height="4"
         x="8"
         y="1032.3622"
         ry="0" />
      <rect
         ry="0"
         y="1028.3622"
         x="11"
         height="8"
         width="2"
         id="rect7765"
         style="fill:#fc8d59;fill-opacity:1;fill-rule:nonzero;stroke:none" />
      <rect
         style="fill:#ffffbf;fill-opacity:1;fill-rule:nonzero;stroke:none"
         id="rect7767"
         width="2"
         height="10"
         x="14"
         y="1026.3622"
         ry="0" />
      <rect
         style="fill:#ffffbf;fill-opacity:1;fill-rule:nonzero;stroke:none"
         id="rect7769"
         width="2"
         height="16"
         x="17"
         y="1020.3622"
         ry="0" />
      <rect
         ry="0"
         y="1028.3622"
         x="20"
         height="8"
         width="2"
         id="rect7771"
         style="fill:#ffffbf;fill-opacity:1;fill-rule:nonzero;stroke:none" />
      <rect
         style="fill:#91cf60;fill-opacity:1;fill-rule:nonzero;stroke:none"
         id="rect7773"
         width="2"
         height="9"
         x="23"
         y="1027.3622"
         ry="0" />
      <rect
         ry="0"
         y="1032.3622"
         x="26"
         height="4"
         width="2"
         id="rect7775"
         style="fill:#91cf60;fill-opacity:1;fill-rule:nonzero;stroke:none" />
      <rect
         style="fill:#91cf60;fill-opacity:1;fill-rule:nonzero;stroke:none"
         id="rect7777"
         width="2"
         height="2"
         x="29"
         y="1034.3622"
         ry="0" />
      <rect
         ry="0"
         y="1033.3622"
         x="32"
         height="3"
         width="2"
         id="rect7779"
         style="fill:#91cf60;fill-opacity:1;fill-rule:nonzero;stroke:none" />
    </g>
    <g
       transform="translate(-2,1.00031)"
       id="g7781"
       style="stroke:none">
      <rect
         style="fill:#eff0f2;fill-opacity:1;fill-rule:nonzero;stroke:none"
         id="rect7783"
         width="12"
         height="6"
         x="28"
         y="1014.3622"
         rx="1.2631578" />
      <path
         style="fill:#eff0f2;fill-opacity:1;stroke:none"
         d="m 28.095971,1018.7631 -2.03282,3.8333 3.503141,-2.3661 z"
         id="path7785"
         inkscape:connector-curvature="0"
         sodipodi:nodetypes="cccc" />
      <g
         style="font-size:1.39755356px;font-style:normal;font-variant:normal;font-weight:500;font-stretch:normal;line-height:125%;letter-spacing:0px;word-spacing:0px;fill:#34495e;fill-opacity:1;font-family:Gotham;-inkscape-font-specification:Gotham Medium"
         id="text7897">
        <path
           d="m 29.292087,1016.3412 0.271126,0 0,-0.7407 0.293486,0 0,-0.2376 -0.8567,0 0,0.2376 0.292088,0 0,0.7407"
           style=""
           id="path7904" />
        <path
           d="m 30.205258,1016.3594 c 0.149538,0 0.254354,-0.062 0.327027,-0.1538 l -0.146743,-0.1216 c -0.05451,0.053 -0.103419,0.077 -0.167706,0.077 -0.08246,0 -0.142551,-0.042 -0.163514,-0.1244 l 0.505914,0 c 0.0014,-0.018 0.0014,-0.038 0.0014,-0.055 0,-0.2222 -0.12019,-0.4137 -0.380135,-0.4137 -0.223608,0 -0.381532,0.1747 -0.381532,0.3955 l 0,0 c 0,0.2334 0.167707,0.3928 0.405291,0.3928 m -0.155129,-0.4584 c 0.01398,-0.084 0.06149,-0.137 0.13137,-0.137 0.07267,0 0.122985,0.053 0.132768,0.137 l -0.264138,0"
           style=""
           id="path7906" />
        <path
           d="m 30.892111,1016.358 c 0.09923,0 0.170502,-0.039 0.223609,-0.096 l 0,0.08 0.261343,0 0,-0.4347 c 0,-0.1062 -0.02376,-0.1844 -0.08106,-0.2403 -0.06009,-0.06 -0.152333,-0.092 -0.287896,-0.092 -0.129972,0 -0.220813,0.024 -0.306064,0.059 l 0.0545,0.1859 c 0.06848,-0.025 0.129972,-0.042 0.209633,-0.042 0.102021,0 0.150936,0.045 0.150936,0.1244 l 0,0.013 c -0.04333,-0.017 -0.111805,-0.029 -0.181682,-0.029 -0.17749,0 -0.296282,0.08 -0.296282,0.2376 l 0,0 c 0,0.1495 0.10901,0.2334 0.252957,0.2334 m 0.09503,-0.1664 c -0.0545,0 -0.09364,-0.031 -0.09364,-0.082 l 0,-0 c 0,-0.057 0.04472,-0.094 0.121587,-0.094 0.03913,0 0.07687,0.01 0.104817,0.019 l 0,0.035 c 0,0.075 -0.0545,0.1243 -0.132768,0.1243"
           style=""
           id="path7908" />
        <path
           d="m 31.513477,1016.3412 0.265535,0 0,-0.4109 c 0,-0.082 0.04472,-0.1272 0.107612,-0.1272 0.06289,0 0.104816,0.045 0.104816,0.1272 l 0,0.4109 0.264138,0 0,-0.4109 c 0,-0.082 0.04612,-0.1272 0.109009,-0.1272 0.06289,0 0.103419,0.045 0.103419,0.1272 l 0,0.4109 0.265535,0 0,-0.4961 c 0,-0.1761 -0.09783,-0.2768 -0.258547,-0.2768 -0.110407,0 -0.187273,0.048 -0.252957,0.123 -0.04053,-0.078 -0.117395,-0.123 -0.218019,-0.123 -0.106214,0 -0.176092,0.057 -0.225006,0.1202 l 0,-0.1034 -0.265535,0 0,0.7561"
           style=""
           id="path7910" />
        <path
           d="m 34.085041,1015.9275 -0.129973,0 0.02795,-0.1579 0.148141,0 0,-0.2236 -0.110407,0 0.03214,-0.1831 -0.201248,0 -0.03214,0.1831 -0.17749,0 0.03214,-0.1831 -0.202645,0 -0.03214,0.1831 -0.164911,0 0,0.2236 0.127177,0 -0.02795,0.1579 -0.145346,0 0,0.225 0.107612,0 -0.03214,0.1887 0.202646,0 0.03214,-0.1887 0.17749,0 -0.03214,0.1887 0.201248,0 0.03214,-0.1887 0.167707,0 0,-0.225 m -0.486349,-0.1663 0.191465,0 -0.03075,0.1747 -0.190068,0 0.02935,-0.1747"
           style=""
           id="path7912" />
        <path
           d="m 34.47367,1015.5851 -0.285101,0 0.248765,0.376 -0.254355,0.3801 0.279511,0 0.118792,-0.1971 0.117394,0.1971 0.285101,0 -0.254354,-0.3829 0.248764,-0.3732 -0.279511,0 -0.113201,0.1887 -0.111805,-0.1887"
           style=""
           id="path7914" />
        <path
           d="m 35.298008,1015.5851 -0.285101,0 0.248765,0.376 -0.254355,0.3801 0.279511,0 0.118792,-0.1971 0.117394,0.1971 0.285101,0 -0.254354,-0.3829 0.248764,-0.3732 -0.279511,0 -0.113201,0.1887 -0.111805,-0.1887"
           style=""
           id="path7916" />
        <path
           d="m 36.122347,1015.5851 -0.285101,0 0.248764,0.376 -0.254354,0.3801 0.27951,0 0.118792,-0.1971 0.117395,0.1971 0.285101,0 -0.254355,-0.3829 0.248765,-0.3732 -0.279511,0 -0.113202,0.1887 -0.111804,-0.1887"
           style=""
           id="path7918" />
        <path
           d="m 29.053106,1018.0881 0.504517,0 c 0.233391,0 0.370351,-0.102 0.370351,-0.2697 l 0,-0 c 0,-0.1328 -0.07547,-0.1998 -0.19426,-0.239 0.08665,-0.038 0.150936,-0.1048 0.150936,-0.218 l 0,-0 c 0,-0.067 -0.02376,-0.1188 -0.06289,-0.1593 -0.0573,-0.056 -0.143948,-0.087 -0.266933,-0.087 l -0.501721,0 0,0.9783 m 0.564611,-0.6736 c 0,0.057 -0.04752,0.085 -0.129972,0.085 l -0.170502,0 0,-0.1719 0.17749,0 c 0.07966,0 0.122984,0.029 0.122984,0.084 l 0,0 m 0.03913,0.3634 0,0 c 0,0.057 -0.04612,0.089 -0.129973,0.089 l -0.209633,0 0,-0.1803 0.206838,0 c 0.09084,0 0.132768,0.035 0.132768,0.088"
           style=""
           id="path7920" />
        <path
           d="m 30.043753,1018.0881 0.264137,0 0,-1.0202 -0.264137,0 0,1.0202"
           style=""
           id="path7922" />
        <path
           d="m 30.673744,1018.1049 c 0.09923,0 0.170501,-0.039 0.223608,-0.096 l 0,0.08 0.261343,0 0,-0.4346 c 0,-0.1062 -0.02376,-0.1845 -0.08106,-0.2404 -0.0601,-0.06 -0.152334,-0.092 -0.287896,-0.092 -0.129973,0 -0.220814,0.024 -0.306065,0.059 l 0.05451,0.1858 c 0.06848,-0.025 0.129973,-0.042 0.209633,-0.042 0.102021,0 0.150936,0.045 0.150936,0.1244 l 0,0.013 c -0.04332,-0.017 -0.111805,-0.029 -0.181682,-0.029 -0.177489,0 -0.296281,0.08 -0.296281,0.2376 l 0,0 c 0,0.1495 0.109009,0.2334 0.252957,0.2334 m 0.09503,-0.1663 c -0.0545,0 -0.09364,-0.031 -0.09364,-0.082 l 0,-0 c 0,-0.057 0.04472,-0.094 0.121587,-0.094 0.03913,0 0.07687,0.01 0.104817,0.02 l 0,0.035 c 0,0.075 -0.0545,0.1244 -0.132768,0.1244"
           style=""
           id="path7924" />
        <path
           d="m 31.295109,1018.0881 0.265535,0 0,-0.4095 c 0,-0.084 0.04752,-0.1285 0.111805,-0.1285 0.06429,0 0.107611,0.045 0.107611,0.1285 l 0,0.4095 0.264138,0 0,-0.4947 c 0,-0.1719 -0.09643,-0.2781 -0.25715,-0.2781 -0.107611,0 -0.177489,0.057 -0.226404,0.1202 l 0,-0.3676 -0.265535,0 0,1.0202"
           style=""
           id="path7926" />
        <path
           d="m 33.065962,1018.1049 c 0.178887,0 0.334016,-0.1495 0.334016,-0.3955 l 0,-0 c 0,-0.2418 -0.155129,-0.3913 -0.335413,-0.3913 -0.113202,0 -0.17749,0.055 -0.229199,0.1174 l 0,-0.3648 -0.265535,0 0,1.0202 0.265535,0 0,-0.092 c 0.04891,0.057 0.115997,0.109 0.230596,0.109 m -0.08106,-0.2222 c -0.08665,0 -0.155128,-0.071 -0.155128,-0.1719 l 0,-0 c 0,-0.1006 0.06848,-0.1719 0.155128,-0.1719 0.08525,0 0.155129,0.071 0.155129,0.1719 l 0,0 c 0,0.102 -0.06988,0.1719 -0.155129,0.1719"
           style=""
           id="path7928" />
        <path
           d="m 33.521259,1018.0881 0.264138,0 0,-1.0202 -0.264138,0 0,1.0202"
           style=""
           id="path7930" />
        <path
           d="m 34.15125,1018.1049 c 0.09923,0 0.170502,-0.039 0.223609,-0.096 l 0,0.08 0.261342,0 0,-0.4346 c 0,-0.1062 -0.02376,-0.1845 -0.08106,-0.2404 -0.0601,-0.06 -0.152333,-0.092 -0.287896,-0.092 -0.129972,0 -0.220813,0.024 -0.306064,0.059 l 0.0545,0.1858 c 0.06848,-0.025 0.129972,-0.042 0.209633,-0.042 0.102021,0 0.150935,0.045 0.150935,0.1244 l 0,0.013 c -0.04332,-0.017 -0.111804,-0.029 -0.181682,-0.029 -0.177489,0 -0.296281,0.08 -0.296281,0.2376 l 0,0 c 0,0.1495 0.109009,0.2334 0.252957,0.2334 m 0.09503,-0.1663 c -0.05451,0 -0.09364,-0.031 -0.09364,-0.082 l 0,-0 c 0,-0.057 0.04472,-0.094 0.121587,-0.094 0.03913,0 0.07687,0.01 0.104816,0.02 l 0,0.035 c 0,0.075 -0.0545,0.1244 -0.132767,0.1244"
           style=""
           id="path7932" />
        <path
           d="m 34.772615,1018.0881 0.265536,0 0,-0.4095 c 0,-0.084 0.04752,-0.1285 0.111804,-0.1285 0.06429,0 0.107612,0.045 0.107612,0.1285 l 0,0.4095 0.264137,0 0,-0.4947 c 0,-0.1719 -0.09643,-0.2781 -0.25715,-0.2781 -0.107611,0 -0.177489,0.057 -0.226403,0.1202 l 0,-0.3676 -0.265536,0 0,1.0202"
           style=""
           id="path7934" />
        <path
           d="m 36.543469,1018.1049 c 0.178886,0 0.334015,-0.1495 0.334015,-0.3955 l 0,-0 c 0,-0.2418 -0.155129,-0.3913 -0.335413,-0.3913 -0.113202,0 -0.177489,0.055 -0.229199,0.1174 l 0,-0.3648 -0.265535,0 0,1.0202 0.265535,0 0,-0.092 c 0.04892,0.057 0.115997,0.109 0.230597,0.109 m -0.08106,-0.2222 c -0.08665,0 -0.155128,-0.071 -0.155128,-0.1719 l 0,-0 c 0,-0.1006 0.06848,-0.1719 0.155128,-0.1719 0.08525,0 0.155129,0.071 0.155129,0.1719 l 0,0 c 0,0.102 -0.06988,0.1719 -0.155129,0.1719"
           style=""
           id="path7936" />
        <path
           d="m 36.998766,1018.0881 0.264137,0 0,-1.0202 -0.264137,0 0,1.0202"
           style=""
           id="path7938" />
        <path
           d="m 37.628756,1018.1049 c 0.09923,0 0.170502,-0.039 0.223609,-0.096 l 0,0.08 0.261342,0 0,-0.4346 c 0,-0.1062 -0.02376,-0.1845 -0.08106,-0.2404 -0.06009,-0.06 -0.152333,-0.092 -0.287896,-0.092 -0.129972,0 -0.220813,0.024 -0.306064,0.059 l 0.05451,0.1858 c 0.06848,-0.025 0.129972,-0.042 0.209633,-0.042 0.102021,0 0.150936,0.045 0.150936,0.1244 l 0,0.013 c -0.04333,-0.017 -0.111805,-0.029 -0.181682,-0.029 -0.17749,0 -0.296282,0.08 -0.296282,0.2376 l 0,0 c 0,0.1495 0.10901,0.2334 0.252957,0.2334 m 0.09503,-0.1663 c -0.0545,0 -0.09364,-0.031 -0.09364,-0.082 l 0,-0 c 0,-0.057 0.04472,-0.094 0.121587,-0.094 0.03913,0 0.07687,0.01 0.104817,0.02 l 0,0.035 c 0,0.075 -0.0545,0.1244 -0.132768,0.1244"
           style=""
           id="path7940" />
        <path
           d="m 38.250122,1018.0881 0.265535,0 0,-0.4095 c 0,-0.084 0.04752,-0.1285 0.111804,-0.1285 0.06429,0 0.107612,0.045 0.107612,0.1285 l 0,0.4095 0.264137,0 0,-0.4947 c 0,-0.1719 -0.09643,-0.2781 -0.25715,-0.2781 -0.107611,0 -0.177489,0.057 -0.226403,0.1202 l 0,-0.3676 -0.265535,0 0,1.0202"
           style=""
           id="path7942" />
      </g>
    </g>
  </g>
</svg>
